<svg xmlns="http://www.w3.org/2000/svg" viewBox="0 0 64 64">
  <style>
    /* Follows the system scheme, not the in-app toggle: a favicon is cached far too
       aggressively to track a choice the page makes. */
    :root { --ground: #f2f2f3; --mark: #0b0b0c; }
    @media (prefers-color-scheme: dark) {
      :root { --ground: #0b0b0c; --mark: #f2f2f3; }
    }
  </style>
  <rect width="64" height="64" rx="12" fill="var(--ground)"/>
  <path d="M20.380376992449666 48.0V16.0H32.353919358221475Q36.02898227768456 16.0 38.53786440855705 17.379220847315437Q41.046746539429535 18.758441694630875 42.33318477348993 21.14920302013423Q43.61962300755033 23.539964345637586 43.61962300755033 26.597352139261748Q43.61962300755033 29.66247116191275 42.321587929949665 32.04764969588926Q41.023552852349 34.43282822986578 38.494484060402684 35.80345925964765Q35.965415268456375 37.17409028942953 32.25942743288591 37.17409028942953H24.32858903104027V32.45102244127517H31.50175912332215Q33.68035077600671 32.45102244127517 35.06430369127517 31.697192218959735Q36.44825660654362 30.943361996644295 37.10372142407718 29.61868314807047Q37.759186241610735 28.294004299496645 37.759186241610735 26.597352139261748Q37.759186241610735 24.885237520973156 37.10372142407718 23.578169567953022Q36.44825660654362 22.27110161493289 35.057431050755035 21.535740876677856Q33.66660549496645 20.80038013842282 31.47426856124161 20.80038013842282H26.11539691694631V48.0Z" fill="var(--mark)"/>
</svg>
